<?xml version="1.0" encoding="UTF-8" standalone="no"?>
<!-- Generator: Adobe Illustrator 16.0.3, SVG Export Plug-In . SVG Version: 6.00 Build 0)  -->

<svg
   xmlns:dc="http://purl.org/dc/elements/1.1/"
   xmlns:cc="http://creativecommons.org/ns#"
   xmlns:rdf="http://www.w3.org/1999/02/22-rdf-syntax-ns#"
   xmlns:svg="http://www.w3.org/2000/svg"
   xmlns="http://www.w3.org/2000/svg"
   xmlns:sodipodi="http://sodipodi.sourceforge.net/DTD/sodipodi-0.dtd"
   xmlns:inkscape="http://www.inkscape.org/namespaces/inkscape"
   version="1.1"
   id="Layer_1"
   x="0px"
   y="0px"
   width="512px"
   height="512px"
   viewBox="0 0 512 512"
   enable-background="new 0 0 512 512"
   xml:space="preserve"
   inkscape:version="0.48.5 r10040"
   sodipodi:docname="settings-icon.svg"><metadata
     id="metadata127"><rdf:RDF><cc:Work
         rdf:about=""><dc:format>image/svg+xml</dc:format><dc:type
           rdf:resource="http://purl.org/dc/dcmitype/StillImage" /></cc:Work></rdf:RDF></metadata><defs
     id="defs125" /><sodipodi:namedview
     pagecolor="#ffffff"
     bordercolor="#666666"
     borderopacity="1"
     objecttolerance="10"
     gridtolerance="10"
     guidetolerance="10"
     inkscape:pageopacity="0"
     inkscape:pageshadow="2"
     inkscape:window-width="640"
     inkscape:window-height="480"
     id="namedview123"
     showgrid="false"
     inkscape:zoom="0.4609375"
     inkscape:cx="324.13818"
     inkscape:cy="303.98759"
     inkscape:window-x="0"
     inkscape:window-y="0"
     inkscape:window-maximized="0"
     inkscape:current-layer="Layer_1" /><path
     d="m 493.2249,218.55513 h -23.6476 c -10.85962,0 -22.38121,-8.42038 -25.61193,-18.69032 l -13.58846,-32.75933 c -5.11053,-9.47625 -3.00588,-23.45786 4.61043,-31.07025 l 16.84437,-16.62848 c 7.67927,-7.63736 7.67927,-20.104702 0,-27.704608 L 423.86509,64.045689 c -7.66487,-7.612392 -20.20102,-7.612392 -27.88027,0 l -16.84617,16.640959 c -7.6271,7.599906 -21.76602,9.672445 -31.34845,4.58206 L 314.81201,71.807902 C 304.47944,68.629532 295.9763,57.203811 295.9763,46.425535 V 22.955183 c 0,-10.74082 -8.90427,-19.5821093 -19.76389,-19.5821093 h -39.46302 c -10.85962,0 -19.7513,8.8430733 -19.7513,19.5821093 v 23.470352 c 0,10.78006 -8.45458,22.203997 -18.8249,25.382367 l -33.01418,13.460806 c -9.60403,5.090385 -23.6458,3.042816 -31.33584,-4.58206 L 116.97699,64.045689 c -7.67746,-7.612392 -20.202809,-7.612392 -27.855089,0 L 61.218242,91.702142 c -7.702649,7.599906 -7.702649,20.067248 0,27.681418 l 16.732841,16.65167 c 7.702649,7.61417 9.807295,21.59578 4.63562,31.07025 l -13.563281,32.78429 c -3.257703,10.26817 -14.716337,18.67604 -25.588547,18.67604 l -23.696166,-0.0103 C 8.8934822,218.55551 0,227.34686 0,238.11266 v 39.11783 c 0,10.7765 8.8934822,19.5839 19.738709,19.5839 h 23.696166 c 10.87221,0.0249 22.330844,8.44355 25.53818,18.69032 l 13.613648,32.75574 c 5.159084,9.49944 3.068828,23.53635 -4.63562,31.10058 l -16.78141,16.62491 c -7.65408,7.63914 -7.65408,20.08153 0,27.70461 L 89.1237,451.37197 c 7.652281,7.6017 20.17763,7.6017 27.85509,0 l 16.84617,-16.66592 c 7.64149,-7.57493 21.73183,-9.65997 31.24771,-4.53212 l 33.10232,13.47507 c 10.37033,3.21583 18.82489,14.60231 18.82489,25.36811 v 23.42576 c 0,10.74081 8.89349,19.55713 19.75131,19.55713 h 39.46303 c 10.85961,0 19.76389,-8.81453 19.76389,-19.55713 v -23.42572 c 0,-10.7658 8.50493,-22.15228 18.83568,-25.36811 l 33.07894,-13.47507 c 9.54287,-5.12785 23.67098,-3.04281 31.34844,4.53212 l 16.74545,16.66592 c 7.67926,7.6017 20.2154,7.6017 27.88026,0 l 27.96662,-27.68142 c 7.67926,-7.62308 7.67926,-20.06547 0,-27.70461 l -16.84436,-16.62491 c -7.61631,-7.56244 -9.71916,-21.59935 -4.61044,-31.10058 l 13.58845,-32.75574 c 3.23073,-10.24498 14.81528,-18.66536 25.61195,-18.66536 h 23.64759 c 10.87222,0 19.72792,-8.79312 19.72792,-19.57318 V 238.1109 c -9.9e-4,-10.76222 -8.8575,-19.55535 -19.72971,-19.55535 m -138.03246,39.10537 c 0,54.03048 -44.16161,97.79282 -98.64317,97.79282 -54.53015,0 -98.67737,-43.76234 -98.67737,-97.79282 0,-54.01981 44.14722,-97.80712 98.67737,-97.80712 54.48156,0 98.64317,43.78731 98.64317,97.80712"
     id="path73"
     style="fill:#ffffff"
     inkscape:connector-curvature="0" /><g
     id="g93" /><g
     id="g95" /><g
     id="g97" /><g
     id="g99" /><g
     id="g101" /><g
     id="g103" /><g
     id="g105" /><g
     id="g107" /><g
     id="g109" /><g
     id="g111" /><g
     id="g113" /><g
     id="g115" /><g
     id="g117" /><g
     id="g119" /><g
     id="g121" /></svg>